<?xml version="1.0" standalone="no"?><!DOCTYPE svg PUBLIC "-//W3C//DTD SVG 1.1//EN" "http://www.w3.org/Graphics/SVG/1.1/DTD/svg11.dtd"><svg t="1752933540906" class="icon" viewBox="0 0 1024 1024" version="1.1" xmlns="http://www.w3.org/2000/svg" p-id="4435" xmlns:xlink="http://www.w3.org/1999/xlink" width="16" height="16"><path d="M341.333333 480a32 32 0 0 0-32 32 32 32 0 0 0 32 32h341.333334a32 32 0 0 0 32-32 32 32 0 0 0-32-32z m170.666667-170.666667a32 32 0 0 0-32 32v341.333334a32 32 0 0 0 32 32 32 32 0 0 0 32-32V341.333333a32 32 0 0 0-32-32z m0-256C259.072 53.333333 53.333333 259.072 53.333333 512c0 62.08 12.394667 121.472 34.837334 175.573333 10.453333 25.194667 23.68 48.832 38.250666 71.509334l-0.042666 0.96c-0.405333 4.928-1.664 13.781333-3.968 25.322666-4.586667 23.125333-13.077333 57.493333-25.28 102.208a32 32 0 0 0 39.296 39.296c44.714667-12.202667 79.082667-20.693333 102.186666-25.28 11.562667-2.304 20.416-3.562667 25.344-3.968l1.002667-0.042666c22.677333 14.570667 46.272 27.818667 71.466667 38.250666A457.642667 457.642667 0 0 0 512 970.666667c252.928 0 458.666667-205.738667 458.666667-458.666667S764.928 53.333333 512 53.333333z m0 64c218.346667 0 394.666667 176.32 394.666667 394.666667S730.346667 906.666667 512 906.666667a393.088 393.088 0 0 1-219.242667-66.453334c-9.386667-6.272-15.146667-6.144-20.096-6.549333a82.688 82.688 0 0 0-13.824 0.170667c-9.258667 0.746667-19.733333 2.432-32.661333 4.992-13.226667 2.624-36.224 8.917333-54.421333 13.44 4.501333-18.218667 10.794667-41.216 13.418666-54.442667 2.56-12.928 4.266667-23.402667 4.992-32.64a82.773333 82.773333 0 0 0 0.170667-13.866667c-0.405333-4.906667-0.277333-10.709333-6.549333-20.053333A393.088 393.088 0 0 1 117.333333 512C117.333333 293.632 293.653333 117.312 512 117.312z" p-id="4436"></path></svg>